<?xml version="1.0" encoding="UTF-8" standalone="no"?>
<svg
   xmlns:dc="http://purl.org/dc/elements/1.1/"
   xmlns:cc="http://creativecommons.org/ns#"
   xmlns:rdf="http://www.w3.org/1999/02/22-rdf-syntax-ns#"
   xmlns:svg="http://www.w3.org/2000/svg"
   xmlns="http://www.w3.org/2000/svg"
   xmlns:sodipodi="http://sodipodi.sourceforge.net/DTD/sodipodi-0.dtd"
   xmlns:inkscape="http://www.inkscape.org/namespaces/inkscape"
   width="1000"
   height="1600"
   viewBox="0 0 264.58333 423.33335"
   version="1.1"
   id="svg1957"
   inkscape:version="1.0.1 (c497b03c, 2020-09-10)"
   sodipodi:docname="xray.svg">
  <defs
     id="defs1951" />
  <sodipodi:namedview
     id="base"
     pagecolor="#ffffff"
     bordercolor="#666666"
     borderopacity="1.0"
     inkscape:pageopacity="0.0"
     inkscape:pageshadow="2"
     inkscape:zoom="0.19795018"
     inkscape:cx="74.126109"
     inkscape:cy="924.19247"
     inkscape:document-units="mm"
     inkscape:current-layer="layer1"
     inkscape:document-rotation="0"
     showgrid="false"
     inkscape:window-width="1252"
     inkscape:window-height="755"
     inkscape:window-x="0"
     inkscape:window-y="23"
     inkscape:window-maximized="0"
     units="px" />
  <metadata
     id="metadata1954">
    <rdf:RDF>
      <cc:Work
         rdf:about="">
        <dc:format>image/svg+xml</dc:format>
        <dc:type
           rdf:resource="http://purl.org/dc/dcmitype/StillImage" />
        <dc:title></dc:title>
      </cc:Work>
    </rdf:RDF>
  </metadata>
  <g
     inkscape:label="Layer 1"
     inkscape:groupmode="layer"
     id="layer1">
    <path
       style="display:inline;fill:#000000;fill-opacity:1;stroke:#000000;stroke-width:0.264583px;stroke-linecap:butt;stroke-linejoin:miter;stroke-opacity:1"
       d="m 98.753935,108.02558 -6.590023,-13.404198 -3.915018,-9.352544 12.180056,-20.4451 4.35002,-2.39251 18.27009,3.04501 9.57004,5.87253 -0.0702,5.57785 0.0702,4.8622 1.5875,12.751697 6.74254,-5.220025 8.48253,0.435004 4.13252,-3.262516 2.61002,0.2175 1.74,1.52251 2.17502,-1.74001 4.35002,-0.87001 21.3151,-21.3151 -11.52756,-12.39755 -3.69752,-3.04502 -10.87505,-2.82751 -6.74253,3.69752 -6.52503,8.70004 -1.95751,4.35002 -6.96003,7.39503 -0.43501,-3.69752 11.09256,-18.27008 -0.87001,-3.91502 -9.35254,-3.04502 -2.82751,7.61254 -0.87001,-9.57005 -9.57004,-1.74 -6.52503,4.13252 -6.30753,7.83003 1.74,-9.57004 6.96004,-6.09003 h 15.00757 l 2.82751,-3.48002 6.74254,-2.82751 5.65502,4.35002 3.69752,-2.39251 6.74253,5.22002 11.31005,2.17501 7.83004,4.35002 17.61759,17.61759 4.13252,2.82751 2.61001,7.17754 -4.78502,-1.74001 -17.18259,12.18005 -11.96255,13.702569 -3.1675,4.018204 -5.61742,2.752291 -4.5111,5.305888 -3.23406,8.15121 12.83256,0.65251 3.30012,-2.74314 3.14919,-0.77597 24.58108,-14.669569 11.35014,9.313949 9.63759,7.13943 5.53205,2.17147 4.13252,0.87 1.65514,6.67646 6.97883,12.86053 4.41609,5.47563 v 2.82751 l 7.17754,5.65503 -0.87,10.65755 -7.39504,4.56752 -5.43753,-3.04501 4.56752,0.435 3.91502,-2.82751 -0.6525,-6.96004 -2.82751,-3.26251 0.435,3.69752 -3.91502,3.04501 -6.30753,2.61001 3.91502,-4.78502 1.30501,-3.48002 -0.21751,-4.13252 -1.305,-0.87 -2.17501,1.305 v 3.26252 l -5.65503,2.82752 3.69752,-6.74254 -0.87,-7.39503 -0.87001,-2.39251 h -4.78502 l -3.48002,7.39503 -0.2175,6.52503 -0.87,7.83004 -2.82752,-7.83004 -1.0875,-8.70004 5.00252,-12.61506 -1.30501,-3.26251 1.30501,-2.82752 -1.74001,-2.17501 -20.24099,-16.56859 -25.62889,18.70688 -5.38834,1.72211 -6.07445,40.94365 0.87,6.74253 -3.48001,5.00252 -6.96004,0.435 -8.04753,-9.57004 -2.39251,0.6525 -0.87001,7.39504 -6.74253,21.7501 -3.26252,2.61001 -0.6525,4.56753 3.26251,-2.17501 h 12.61507 l 8.70004,13.48506 -7.42421,13.98506 0.435,0.435 4.35002,0.435 28.08681,36.69268 10.87505,8.91755 v 3.48001 l 3.04501,0.65251 0.87001,3.91502 -1.30501,5.00251 -3.91502,3.26251 4.35002,-0.65251 1.52251,5.43753 -6.52503,6.09004 -17.40008,28.27512 -1.08751,15.87757 3.48002,3.69753 -0.2175,3.69752 3.69751,1.95749 5.65503,7.61254 10.00505,5.22005 3.91502,-1.52252 6.74253,10.00506 -1.52251,0.435 -5.22002,-3.91504 6.09003,7.39505 -2.61001,0.65249 -5.87253,-4.5675 4.35002,6.74251 -3.91502,0.87 -4.78502,-2.39249 h -3.26252 l 2.82751,6.74253 -6.52503,0.21749 -5.22002,-5.22002 -10.00505,-5.43753 -4.35002,-13.05007 -3.48002,-2.61001 -3.26251,1.52252 -8.70004,-5.43753 1.305,-7.83003 5.22003,-1.95752 6.96003,-20.44509 5.87253,-21.96762 0.6525,-18.05256 6.52503,-1.52251 0.2175,-2.17501 -3.69751,-5.65502 -30.45015,-41.04271 -5.65503,-2.61001 -3.26251,4.06753 -7.39503,4.56752 -3.48002,-0.87 -3.26252,-4.56753 -2.82751,-0.6525 -5.65503,3.26252 -5.00252,0.2175 -5.261709,-7.59699 -3.045772,1.74153 -18.662647,31.73808 -3.262516,17.61759 -1.305007,1.9575 8.04754,3.045 0.652502,3.04503 10.005047,13.48504 4.132519,0.65252 1.087506,1.74001 4.132517,0.65248 1.30501,2.82753 h 2.17501 l 0.435,8.26505 -1.95827,1.73964 2.03027,24.65112 -3.33603,1.59221 -3.332236,8.19494 -2.538777,-8.9903 0.288359,-4.06128 -3.625903,2.9033 -2.317483,4.20301 0.435004,5.65502 -6.307532,-8.04754 5.002525,-3.91501 -8.047538,3.91501 4.35002,5.22002 -10.005046,-5.87253 7.395035,-4.56751 -4.348504,-0.72564 -0.798769,4.0609 -5.292778,-7.03278 8.047538,-0.435 6.741773,-6.52693 4.56828,-11.30816 -2.39251,-3.04501 v -3.48001 L 75.481325,309.43152 69.391296,307.039 H 63.95377 l -0.870003,-5.4375 -1.957512,-0.43503 -2.175009,-6.09002 -6.52503,-4.13252 -1.087506,-3.48001 3.045015,-2.39249 -1.305007,-3.04504 3.262516,-4.78501 2.610012,-1.5225 26.537023,-48.06584 2.858203,-6.29615 6.956619,2.32089 1.305007,-1.9575 -1.551681,-8.2067 2.392513,-14.13757 2.82751,-5.22002 7.39504,-2.39251 7.83003,8.48254 3.04502,-2.82752 -0.435,-6.09003 2.61001,-4.78502 -5.00253,1.74001 -8.70004,-3.91502 -5.65502,-12.39756 -0.87001,-9.57004 -1.740005,-3.48002 -3.262514,-3.69752 -3.915018,0.2175 -4.350023,1.95751 -3.480017,5.87253 -0.652502,3.69752 -3.697518,5.65503 -1.740008,5.22002 -8.917543,8.48254 -0.435002,3.91502 -2.17501,3.26251 5.002525,2.82752 5.872528,0.6525 6.307529,9.13505 2.39251,12.18005 -5.437523,-3.26251 -2.827515,-8.48254 -5.437526,-3.69752 -10.005047,-3.48002 -6.960034,3.04502 -3.697517,0.2175 -1.305004,0.87 -5.655027,1.30501 -4.350021,5.65503 0.652504,7.39503 2.827512,6.30753 5.872527,9.13504 -6.96003,-4.35002 -5.655027,-7.17753 -2.827515,-11.52756 5.872528,-7.61253 -3.045013,0.2175 -5.437526,6.74253 -0.435001,7.83004 3.262513,10.44005 -8.482541,-6.96003 -0.652503,-13.26757 8.04754,-9.35254 13.267562,-3.91502 -6.30753,-9.35254 -3.915019,3.69751 -1.957509,5.00253 -4.35002,2.39251 0.652502,-11.09255 7.830037,-7.61254 5.002525,0.6525 7.177533,9.13505 5.220025,-6.74254 7.395035,-11.74505 4.132519,-3.69752 1.740009,-3.26252 10.222547,-8.48254 1.305007,-6.52503 1.95751,-2.39251 5.872527,-4.78502 -5.002524,-4.13252 h -3.045013 l -4.132522,4.35002 -18.052584,8.04754 -15.00757,10.22255 -6.960034,10.22255 -5.872527,-4.35002 -4.785024,-24.57762 1.957511,-31.75515 -1.087505,-2.82752 1.957509,-2.39251 -1.522507,-4.350018 5.872526,-13.267564 3.915021,-3.04501 2.17501,1.0875 5.437526,-9.57004 3.697517,-1.08751 3.915018,3.48002 5.002522,-5.87253 4.785024,-0.2175 9.135043,3.69752 4.13252,8.70004 -7.177535,-5.00253 -9.352545,-2.82751 -3.262516,3.91502 5.872528,9.13504 -5.655027,-1.305 -3.045013,-2.82752 -5.220025,7.612539 1.305007,6.307529 14.572567,3.915014 3.697518,-1.740002 7.612536,1.305002 -10.440048,5.22003 -16.530079,-2.17501 -5.872526,1.95751 -3.480017,0.435 -1.087504,9.35254 3.480014,21.75011 v 9.57004 l 2.392514,1.52251 13.485061,-7.39504 9.135044,-7.39503 v -3.26252 l 2.392511,-1.74 1.305007,-4.35002 8.047538,0.2175 1.305007,-1.95751 8.265038,-4.56753 1.740008,-5.43752 z"
       id="path1539"
       sodipodi:nodetypes="cccccccccccccccccccccccccccccccccccccccccccccccccccccccccccccccccccccccccccccccccccccccccccccccccccccccccccccccccccccccccccccccccccccccccccccccccccccccccccccccccccccccccccccccccccccccccccccccccccccccccccccccccccccccccccccccccccccccccccccccccccccccccccccccccccccccccccccccccccccccccccccccccccccccccccccccccccccccccccccccccccccccccccccccccccc"
       inkscape:label="outline" />
    <g
       id="g1709"
       inkscape:label="head"
       transform="matrix(0.26458333,0,0,0.26458333,1.313475,16.457648)">
      <path
         style="display:none;fill:#000000;fill-opacity:1;stroke:#00ff03;stroke-width:3;stroke-linecap:butt;stroke-linejoin:miter;stroke-miterlimit:4;stroke-dasharray:none;stroke-opacity:1"
         d="m 416.22479,421.46628 23.84348,16.61818 11.56048,25.28854 31.06877,12.28301 22.39842,-10.83795 6.50277,-29.62372 -7.2253,-20.23083 7.94783,-42.62925 -9.39289,-7.94782 -10.83794,15.89565 2.89012,36.84901 -6.50277,15.17313 -21.67589,9.39288 -20.95336,-10.83794 -16.61818,-17.34072 -13.72807,-7.22529 z"
         id="path1567"
         inkscape:label="jaw" />
      <path
         style="display:inline;fill:#000000;fill-opacity:1;stroke:#00ff03;stroke-width:3;stroke-linecap:butt;stroke-linejoin:miter;stroke-miterlimit:4;stroke-dasharray:none;stroke-opacity:1"
         d="m 426.66253,407.6151 -38.09487,-5.71423 -0.95237,-20.95218 -16.19032,-35.23775 -37.42826,-85.90417 52.38044,-77.14211 87.6182,18.09507 11.42846,12.38083 7.90474,111.6182 17.14269,19.9998 -12.38083,29.52353 -15.23795,16.19032 -1.90474,18.09506 -26.66641,13.3332 z"
         id="path1552"
         inkscape:label="skull"
         sodipodi:nodetypes="ccccccccccccccc" />
      <path
         style="display:inline;fill:none;stroke:#00ff03;stroke-width:3;stroke-linecap:butt;stroke-linejoin:miter;stroke-miterlimit:4;stroke-dasharray:none;stroke-opacity:1"
         d="m 443.94692,337.09049 26.5722,-11.57149 13.28572,12.57296 -1.45126,15.87986 -10.47609,6.69101 -19.47651,-8.16668 z"
         id="path1554"
         inkscape:label="left eye"
         sodipodi:nodetypes="ccccccc" />
      <ellipse
         style="fill:#ff1300;fill-opacity:1;stroke:#ff1300;stroke-width:3;stroke-miterlimit:4;stroke-dasharray:none;stroke-opacity:1"
         id="path1753"
         cx="402.91052"
         cy="365.8107"
         rx="5.7894282"
         ry="5.4677935" />
      <path
         style="display:inline;fill:none;stroke:#00ff03;stroke-width:3;stroke-linecap:butt;stroke-linejoin:miter;stroke-miterlimit:4;stroke-dasharray:none;stroke-opacity:1"
         d="m 410.51865,348.20849 h -23.286 l 1.33501,23.21648 15.23795,12.38083 15.23795,-8.57134 z"
         id="path1556"
         inkscape:label="right eye"
         sodipodi:nodetypes="cccccc" />
      <path
         style="display:inline;fill:none;stroke:#00ff03;stroke-width:3;stroke-linecap:butt;stroke-linejoin:miter;stroke-miterlimit:4;stroke-dasharray:none;stroke-opacity:1"
         d="m 421.07814,353.26239 14.41072,6.20536 2.2162,-13.081 19.94581,25.93497 -8.86481,1.77296 -10.19452,-8.42156 -2.44324,12.85396 -7.09184,2.2162 z"
         id="path1558"
         sodipodi:nodetypes="ccccccccc"
         inkscape:label="nose" />
      <ellipse
         style="fill:#ff1300;fill-opacity:1;stroke:#ff1300;stroke-width:3;stroke-miterlimit:4;stroke-dasharray:none;stroke-opacity:1"
         id="path1753-0"
         cx="467.23752"
         cy="342.97461"
         rx="5.7894282"
         ry="5.4677935" />
    </g>
    <g
       id="g1690"
       inkscape:label="torso"
       style="display:inline"
       transform="matrix(0.26458333,0,0,0.26458333,1.313475,16.457648)">
      <path
         style="fill:none;stroke:#00ff03;stroke-width:3;stroke-linecap:butt;stroke-linejoin:miter;stroke-miterlimit:4;stroke-dasharray:none;stroke-opacity:1"
         d="m 372.79728,444.08184 -60.66446,51.57352 134.39052,-16.61818"
         id="path1593"
         inkscape:label="right shoulder 2"
         sodipodi:nodetypes="ccc" />
      <path
         style="display:inline;fill:none;stroke:#00ff03;stroke-width:3;stroke-linecap:butt;stroke-linejoin:miter;stroke-miterlimit:4;stroke-dasharray:none;stroke-opacity:1"
         d="m 367.76761,356.20713 -87.37997,76.1979 160.09018,4.03093"
         id="path1591"
         inkscape:label="right shoulder 1"
         sodipodi:nodetypes="ccc" />
      <path
         style="fill:none;stroke:#00ff03;stroke-width:3;stroke-linecap:butt;stroke-linejoin:miter;stroke-miterlimit:4;stroke-dasharray:none;stroke-opacity:1"
         d="m 550.44035,368.98405 73.10276,8.89897 -91.76127,63.58261"
         id="path1595"
         inkscape:label="left shoulder 2"
         sodipodi:nodetypes="ccc" />
      <path
         style="display:inline;fill:none;stroke:#00ff03;stroke-width:3;stroke-linecap:butt;stroke-linejoin:miter;stroke-miterlimit:4;stroke-dasharray:none;stroke-opacity:1"
         d="m 499.06742,413.66225 97.01957,-119.59267 -88.87115,7.2253"
         id="path1589"
         inkscape:label="left shoulder 1"
         sodipodi:nodetypes="ccc" />
      <g
         id="g1741"
         inkscape:label="left ribs">
        <path
           style="fill:none;stroke:#00ff03;stroke-width:3;stroke-linecap:butt;stroke-linejoin:miter;stroke-miterlimit:4;stroke-dasharray:none;stroke-opacity:1"
           d="m 606.67375,584.47836 -14.18056,12.6482 -28.75293,-10.63043 -15.89885,-60.99871 30.90426,42.79185 17.00927,1.31096 7.6306,-10.60545"
           id="path1676"
           sodipodi:nodetypes="ccccccc" />
        <path
           style="fill:none;stroke:#00ff03;stroke-width:3;stroke-linecap:butt;stroke-linejoin:miter;stroke-miterlimit:4;stroke-dasharray:none;stroke-opacity:1"
           d="m 605.77026,529.6352 -5.54334,11.83415 -19.28331,0.57917 -33.1022,-16.5511"
           id="path1668"
           sodipodi:nodetypes="cccc" />
        <path
           style="fill:none;stroke:#00ff03;stroke-width:3;stroke-linecap:butt;stroke-linejoin:miter;stroke-miterlimit:4;stroke-dasharray:none;stroke-opacity:1"
           d="m 609.51542,491.72164 -8.14468,21.25946 -23.87413,7.94376 -32.13787,-8.66832"
           id="path1666"
           sodipodi:nodetypes="cccc" />
        <path
           style="fill:none;stroke:#00ff03;stroke-width:3;stroke-linecap:butt;stroke-linejoin:miter;stroke-miterlimit:4;stroke-dasharray:none;stroke-opacity:1"
           d="m 616.182,451.45965 -24.1761,42.80622 -53.2676,0.61202"
           id="path1662"
           sodipodi:nodetypes="ccc" />
        <path
           style="fill:none;stroke:#00ff03;stroke-width:3;stroke-linecap:butt;stroke-linejoin:miter;stroke-miterlimit:4;stroke-dasharray:none;stroke-opacity:1"
           d="m 610.56367,404.26616 -30.64392,63.14844 -46.14678,9.25708"
           id="path1660"
           sodipodi:nodetypes="ccc" />
      </g>
      <g
         id="g1734"
         inkscape:label="right ribs">
        <path
           style="display:inline;fill:none;stroke:#00ff03;stroke-width:3;stroke-linecap:butt;stroke-linejoin:miter;stroke-miterlimit:4;stroke-dasharray:none;stroke-opacity:1"
           d="m 390.56528,613.91249 44.43557,31.57264 30.40328,-17.54036 54.95979,-88.87114"
           id="path1641" />
        <path
           style="display:inline;fill:none;stroke:#00ff03;stroke-width:3;stroke-linecap:butt;stroke-linejoin:miter;stroke-miterlimit:4;stroke-dasharray:none;stroke-opacity:1"
           d="m 383.54914,591.6947 49.113,23.38715 38.58878,-12.86293 49.113,-63.14529"
           id="path1639" />
        <path
           style="fill:none;stroke:#00ff03;stroke-width:3;stroke-linecap:butt;stroke-linejoin:miter;stroke-miterlimit:4;stroke-dasharray:none;stroke-opacity:1"
           d="m 378.87171,572.98499 51.45171,22.21779 46.77429,-16.371 43.26621,-39.75815"
           id="path1637" />
        <path
           style="fill:none;stroke:#00ff03;stroke-width:3;stroke-linecap:butt;stroke-linejoin:miter;stroke-miterlimit:4;stroke-dasharray:none;stroke-opacity:1"
           d="m 377.70235,548.42849 45.60493,26.89521 47.94364,-18.70971 44.43557,-35.08071"
           id="path1635" />
        <path
           style="fill:none;stroke:#00ff03;stroke-width:3;stroke-linecap:butt;stroke-linejoin:miter;stroke-miterlimit:4;stroke-dasharray:none;stroke-opacity:1"
           d="m 366.00878,530.88813 66.65336,21.04843 70.16142,-49.113"
           id="path1633" />
        <path
           style="fill:none;stroke:#00ff03;stroke-width:3;stroke-linecap:butt;stroke-linejoin:miter;stroke-miterlimit:4;stroke-dasharray:none;stroke-opacity:1"
           d="m 356.65392,503.99292 65.484,19.87907 56.12914,-28.06457"
           id="path1631" />
      </g>
      <path
         style="fill:none;stroke:#00ff03;stroke-width:3;stroke-linecap:butt;stroke-linejoin:miter;stroke-miterlimit:4;stroke-dasharray:none;stroke-opacity:1"
         d="m 499.06742,413.66225 32.71442,27.80338 -1.31909,16.99984 3.31022,18.20621 4.96533,18.20621 6.62044,17.37865 2.48267,13.24088 -10.09086,30.997 -17.38663,-17.42079 -4.67743,-17.54035 -12.86293,-18.70972 -24.5565,-7.01614 -31.74372,-16.77024 -6.04552,-42.60122 48.88525,21.89462 9.70435,-44.66833"
         id="path1674"
         sodipodi:nodetypes="cccccccccccccccc"
         inkscape:label="sternum" />
    </g>
    <g
       id="g1565"
       inkscape:label="right arm 1"
       transform="matrix(0.26458333,0,0,0.26458333,1.313475,16.457648)">
      <path
         style="fill:none;stroke:#00ff03;stroke-width:3;stroke-linecap:butt;stroke-linejoin:miter;stroke-miterlimit:4;stroke-dasharray:none;stroke-opacity:1"
         d="M 280.38764,432.40503 121.61392,547.26262 114.85759,336.12735"
         id="path1542" />
      <path
         style="fill:none;fill-opacity:1;stroke:#00ff03;stroke-width:3;stroke-linecap:butt;stroke-linejoin:miter;stroke-miterlimit:4;stroke-dasharray:none;stroke-opacity:1"
         d="m 271.94223,236.4715 -62.49604,-33.78164 -94.5886,133.43749"
         id="path1544" />
      <path
         style="fill:none;stroke:#00ff03;stroke-width:3;stroke-linecap:butt;stroke-linejoin:miter;stroke-miterlimit:4;stroke-dasharray:none;stroke-opacity:1"
         d="m 268.56406,315.85836 -34.27047,14.0972 -67.02356,-12.04704 -52.41244,18.21883"
         id="path1546"
         sodipodi:nodetypes="cccc" />
      <path
         style="fill:none;stroke:#00ff03;stroke-width:3;stroke-linecap:butt;stroke-linejoin:miter;stroke-miterlimit:4;stroke-dasharray:none;stroke-opacity:1"
         d="M 221.26976,265.1859 168.90822,219.58068 114.85759,336.12735"
         id="path1548" />
      <path
         style="fill:none;stroke:#00ff03;stroke-width:3;stroke-linecap:butt;stroke-linejoin:miter;stroke-miterlimit:4;stroke-dasharray:none;stroke-opacity:1"
         d="M 168.90822,302.34571 123.303,258.42957 114.85759,336.12735"
         id="path1550" />
    </g>
    <g
       id="g1612"
       inkscape:label="left arm 1"
       transform="matrix(0.26458333,0,0,0.26458333,1.313475,16.457648)">
      <path
         style="fill:none;stroke:#00ff03;stroke-width:3;stroke-linecap:butt;stroke-linejoin:miter;stroke-miterlimit:4;stroke-dasharray:none;stroke-opacity:1"
         d="M 596.08699,294.06958 742,177 613,86"
         id="path1597" />
      <path
         style="fill:none;stroke:#00ff03;stroke-width:3;stroke-linecap:butt;stroke-linejoin:miter;stroke-miterlimit:4;stroke-dasharray:none;stroke-opacity:1"
         d="m 518,191 60,-86 35,-19"
         id="path1599" />
      <path
         style="fill:none;stroke:#00ff03;stroke-width:3;stroke-linecap:butt;stroke-linejoin:miter;stroke-miterlimit:4;stroke-dasharray:none;stroke-opacity:1"
         d="m 423,111 27,-36 81,8 82,3"
         id="path1601" />
      <path
         style="fill:none;stroke:#00ff03;stroke-width:3;stroke-linecap:butt;stroke-linejoin:miter;stroke-miterlimit:4;stroke-dasharray:none;stroke-opacity:1"
         d="m 507,107 13,-46 21,-11 72,36"
         id="path1603" />
      <path
         style="fill:none;stroke:#00ff03;stroke-width:3;stroke-linecap:butt;stroke-linejoin:miter;stroke-miterlimit:4;stroke-dasharray:none;stroke-opacity:1"
         d="m 564,95 16,-40 33,31"
         id="path1605" />
    </g>
    <g
       id="g1629"
       inkscape:label="right arm 2"
       style="display:inline"
       transform="matrix(0.26458333,0,0,0.26458333,1.313475,16.457648)">
      <path
         style="display:inline;fill:none;stroke:#00ff03;stroke-width:3;stroke-linecap:butt;stroke-linejoin:miter;stroke-miterlimit:4;stroke-dasharray:none;stroke-opacity:1"
         d="M 312.13282,495.65536 207,678"
         id="path1614" />
      <path
         style="display:inline;fill:none;stroke:#00ff03;stroke-width:3;stroke-linecap:butt;stroke-linejoin:miter;stroke-miterlimit:4;stroke-dasharray:none;stroke-opacity:1"
         d="M 311,753 299,711 275,690 207,678"
         id="path1616" />
      <path
         style="display:inline;fill:none;stroke:#00ff03;stroke-width:3;stroke-linecap:butt;stroke-linejoin:miter;stroke-miterlimit:4;stroke-dasharray:none;stroke-opacity:1"
         d="m 171,809 -23,-22 -14,-51 36,-45 37,-13"
         id="path1618" />
      <path
         style="display:inline;fill:none;stroke:#00ff03;stroke-width:3;stroke-linecap:butt;stroke-linejoin:miter;stroke-miterlimit:4;stroke-dasharray:none;stroke-opacity:1"
         d="m 116,668 4,-31 31,-21 56,62"
         id="path1620" />
      <path
         style="display:inline;fill:none;stroke:#00ff03;stroke-width:3;stroke-linecap:butt;stroke-linejoin:miter;stroke-miterlimit:4;stroke-dasharray:none;stroke-opacity:1"
         d="m 115,785 -17,-28 6,-39 33,-27 70,-13"
         id="path1622" />
    </g>
    <g
       id="g1658"
       inkscape:label="left arm 2"
       transform="matrix(0.26458333,0,0,0.26458333,34.418462,-40.77995)">
      <path
         style="fill:none;stroke:#00ff03;stroke-width:3;stroke-linecap:butt;stroke-linejoin:miter;stroke-miterlimit:4;stroke-dasharray:none;stroke-opacity:1"
         d="m 694.59813,734.35627 -1.16936,-50.28235 30.40329,-71.33079"
         id="path1643" />
      <path
         style="fill:none;stroke:#00ff03;stroke-width:3;stroke-linecap:butt;stroke-linejoin:miter;stroke-miterlimit:4;stroke-dasharray:none;stroke-opacity:1"
         d="m 781.13056,767.09827 22.21778,-15.20164 -1.16935,-32.742 -54.95979,-59.63721 -23.38714,-46.77429"
         id="path1645" />
      <path
         style="fill:none;stroke:#00ff03;stroke-width:3;stroke-linecap:butt;stroke-linejoin:miter;stroke-miterlimit:4;stroke-dasharray:none;stroke-opacity:1"
         d="m 753.06599,744.88049 22.21778,-19.87907 2.33872,-42.09686 -53.79043,-70.16143"
         id="path1647" />
      <path
         style="fill:none;stroke:#00ff03;stroke-width:3;stroke-linecap:butt;stroke-linejoin:miter;stroke-miterlimit:4;stroke-dasharray:none;stroke-opacity:1"
         d="m 729.67884,722.6627 18.70972,-18.70971 -7.01614,-80.68564 -17.54036,-10.52422"
         id="path1649" />
      <path
         style="fill:none;stroke:#00ff03;stroke-width:3;stroke-linecap:butt;stroke-linejoin:miter;stroke-miterlimit:4;stroke-dasharray:none;stroke-opacity:1"
         d="m 498.4219,594.21409 120.09853,-67.23114 105.31163,85.76018"
         id="path1651"
         sodipodi:nodetypes="ccc" />
    </g>
    <path
       style="fill:none;stroke:#00ff03;stroke-width:0.79375;stroke-linecap:butt;stroke-linejoin:miter;stroke-miterlimit:4;stroke-dasharray:none;stroke-opacity:1"
       d="m 137.60419,166.85917 -15.25555,39.79659"
       id="path1711"
       sodipodi:nodetypes="cc"
       inkscape:label="spine" />
    <path
       style="fill:none;stroke:#00ff03;stroke-width:0.79375;stroke-linecap:butt;stroke-linejoin:miter;stroke-miterlimit:4;stroke-dasharray:none;stroke-opacity:1"
       d="m 122.34864,206.65576 -7.41032,-0.41169 -9.05706,-9.05705 -6.586943,16.46737 v 11.11547 l 6.175263,11.52716 12.35053,-5.3519 7.41031,6.58695 11.52716,-9.05705 11.52716,-12.35053 -7.41032,-13.17389 -9.46873,4.94021 z"
       id="path1713"
       inkscape:label="pelvis" />
    <g
       id="g1751"
       inkscape:label="left leg"
       transform="matrix(0.26458333,0,0,0.26458333,1.313475,16.457648)">
      <path
         style="fill:none;stroke:#00ff03;stroke-width:3;stroke-linecap:butt;stroke-linejoin:miter;stroke-miterlimit:4;stroke-dasharray:none;stroke-opacity:1"
         d="m 511.91474,801.32551 186.71663,208.50019 -93.35831,258.2914 38.89929,90.2463 21.29161,15.7075 20.83064,-18.8549 7.99754,50.0197"
         id="path1715"
         sodipodi:nodetypes="ccccccc" />
      <path
         style="fill:none;stroke:#00ff03;stroke-width:3;stroke-linecap:butt;stroke-linejoin:miter;stroke-miterlimit:4;stroke-dasharray:none;stroke-opacity:1"
         d="m 605.27306,1268.1171 61.50802,85.7164 28.95901,15.2034 20.58256,-11.5182 17.03033,30.2581"
         id="path1717"
         sodipodi:nodetypes="ccccc" />
      <path
         style="fill:none;stroke:#00ff03;stroke-width:3;stroke-linecap:butt;stroke-linejoin:miter;stroke-miterlimit:4;stroke-dasharray:none;stroke-opacity:1"
         d="m 751.69598,1377.9682 -25.63459,-33.1878 -24.63095,9.6102 -15.81656,-9.0784 -80.34082,-77.1951 104.23835,73.8351 24.76178,-6.5158 22.83591,27.999"
         id="path1719"
         sodipodi:nodetypes="cccccccc" />
    </g>
    <g
       id="g1746"
       inkscape:label="right leg"
       transform="matrix(0.26458333,0,0,0.26458333,1.313475,16.457648)">
      <path
         style="fill:none;stroke:#00ff03;stroke-width:3;stroke-linecap:butt;stroke-linejoin:miter;stroke-miterlimit:4;stroke-dasharray:none;stroke-opacity:1"
         d="m 370.3213,787.32177 -148.65844,234.06593 143.42892,120.2485 15.02719,106.2291 -17.55239,-13.7128 1.64553,38.9444"
         id="path1721"
         sodipodi:nodetypes="cccccc" />
      <path
         style="fill:none;stroke:#00ff03;stroke-width:3;stroke-linecap:butt;stroke-linejoin:miter;stroke-miterlimit:4;stroke-dasharray:none;stroke-opacity:1"
         d="m 329.65584,1276.9364 -10.42173,-19.1979 20.84347,-14.2613 25.0142,-101.841 -45.85767,96.3559 -30.71668,18.6494 15.35834,12.0673"
         id="path1723" />
      <path
         style="fill:none;stroke:#00ff03;stroke-width:3;stroke-linecap:butt;stroke-linejoin:miter;stroke-miterlimit:4;stroke-dasharray:none;stroke-opacity:1"
         d="m 365.09178,1141.6362 -51.34279,84.8371 -36.75032,3.2911 5.78692,9.0667"
         id="path1725" />
    </g>
  </g>
</svg>
